<svg xmlns="http://www.w3.org/2000/svg" width="64" height="64" viewBox="0 0 48 48">
  <defs>
    <linearGradient id="g" x1="0" y1="0" x2="1" y2="1">
      <stop offset="0" stop-color="#143024"/>
      <stop offset="1" stop-color="#28b07a"/>
    </linearGradient>
  </defs>
  <rect x="6" y="6" width="36" height="36" rx="10" fill="url(#g)" />
  <path d="M24 15c3.866 0 7 3.134 7 7v3h2a2 2 0 012 2v5a2 2 0 01-2 2H17a2 2 0 01-2-2v-5a2 2 0 012-2h2v-3c0-3.866 3.134-7 7-7zm0 4a3 3 0 00-3 3v3h6v-3a3 3 0 00-3-3z" fill="#ffffff"/>
</svg>
